<mxfile host="app.diagrams.net" modified="2020-07-14T19:16:10.770Z" agent="5.0 (Macintosh; Intel Mac OS X 10_15_5) AppleWebKit/537.36 (KHTML, like Gecko) Chrome/83.0.4103.116 Safari/537.36" etag="yR6pVIAbIpN23SexZx9b" version="13.4.2" type="github">
  <diagram id="N8MlhqzikUJ44hTieWT3" name="Page-1">
    <mxGraphModel dx="2066" dy="1105" grid="1" gridSize="10" guides="1" tooltips="1" connect="1" arrows="1" fold="1" page="1" pageScale="1" pageWidth="827" pageHeight="1169" math="0" shadow="0">
      <root>
        <mxCell id="0" />
        <mxCell id="1" parent="0" />
        <mxCell id="5MfJtAxExzJ1bRtbWbkx-1" value="Access" style="rounded=0;whiteSpace=wrap;html=1;fillColor=#dae8fc;strokeColor=#6c8ebf;" vertex="1" parent="1">
          <mxGeometry x="300" y="240" width="120" height="60" as="geometry" />
        </mxCell>
        <mxCell id="5MfJtAxExzJ1bRtbWbkx-2" value="Limit" style="rounded=0;whiteSpace=wrap;html=1;fillColor=#dae8fc;strokeColor=#6c8ebf;" vertex="1" parent="1">
          <mxGeometry x="420" y="240" width="120" height="60" as="geometry" />
        </mxCell>
        <mxCell id="5MfJtAxExzJ1bRtbWbkx-3" value="Base Address" style="rounded=0;whiteSpace=wrap;html=1;fillColor=#dae8fc;strokeColor=#6c8ebf;" vertex="1" parent="1">
          <mxGeometry x="300" y="300" width="240" height="60" as="geometry" />
        </mxCell>
      </root>
    </mxGraphModel>
  </diagram>
</mxfile>
